<svg version="1.1" xmlns="http://www.w3.org/2000/svg" xmlns:xlink="http://www.w3.org/1999/xlink" stroke-linecap="round" stroke-linejoin="round" stroke-width="0" fill-rule="evenodd" clip-rule="evenodd" id="sMbAFkGr3UzR639URLe1_bottom" viewBox="-38500 -10500 77000 21000" width="77mm" height="21mm" class="w-100 h-100"><defs><style>.sMbAFkGr3UzR639URLe1_fr4 {color: #666666;}
.sMbAFkGr3UzR639URLe1_cu {color: #cccccc;}
.sMbAFkGr3UzR639URLe1_cf {color: #cc9933;}
.sMbAFkGr3UzR639URLe1_sm {color: #004200; opacity: 0.75;}
.sMbAFkGr3UzR639URLe1_ss {color: #ffffff;}
.sMbAFkGr3UzR639URLe1_sp {color: #999999;}
.sMbAFkGr3UzR639URLe1_out {color: #000000;}</style><rect x="-500" y="-900" width="1000" height="1800" rx="500" ry="500" id="SRjLgUPWAtjxMOOXl6yT_pad-10"/><rect x="-1035" y="-2070" width="2070" height="4140" rx="1035" ry="1035" id="SRjLgUPWAtjxMOOXl6yT_pad-11"/><rect x="-500" y="-900" width="1000" height="1800" rx="500" ry="500" id="XySz7j7MyQhH-XySOTh1_pad-10"/><rect x="-350" y="-350" width="700" height="700" id="XySz7j7MyQhH-XySOTh1_pad-11"/><rect x="-1035" y="-2070" width="2070" height="4140" rx="1035" ry="1035" id="XySz7j7MyQhH-XySOTh1_pad-12"/><circle cx="0" cy="0" r="300" id="XySz7j7MyQhH-XySOTh1_pad-13"/><circle cx="0" cy="0" r="150" id="XySz7j7MyQhH-XySOTh1_pad-16"/><rect x="-300" y="-700" width="600" height="1400" rx="300" ry="300" id="XySz7j7MyQhH-XySOTh1_pad-17"/><circle cx="0" cy="0" r="175" id="XySz7j7MyQhH-XySOTh1_pad-18"/><rect x="-690" y="-1200" width="1380" height="2400" rx="690" ry="690" id="XySz7j7MyQhH-XySOTh1_pad-19"/><circle cx="0" cy="0" r="150" id="PGQkmgcp5YWr_a6Jrun8_pad-1"/><circle cx="0" cy="0" r="350" id="PGQkmgcp5YWr_a6Jrun8_pad-4"/><circle cx="0" cy="0" r="450" id="PGQkmgcp5YWr_a6Jrun8_pad-5"/><circle cx="0" cy="0" r="495.5" id="PGQkmgcp5YWr_a6Jrun8_pad-6"/><circle cx="0" cy="0" r="1600" id="PGQkmgcp5YWr_a6Jrun8_pad-7"/><g id="sMbAFkGr3UzR639URLe1_bottom_soldermask"><use xlink:href="#SRjLgUPWAtjxMOOXl6yT_pad-10" x="25820" y="8999.989"/><use xlink:href="#SRjLgUPWAtjxMOOXl6yT_pad-10" x="25819.989" y="4819.989"/><use xlink:href="#SRjLgUPWAtjxMOOXl6yT_pad-10" x="17180" y="9000.011"/><use xlink:href="#SRjLgUPWAtjxMOOXl6yT_pad-10" x="17179.989" y="4820.011"/><use xlink:href="#SRjLgUPWAtjxMOOXl6yT_pad-11" x="-36600" y="0"/><use xlink:href="#SRjLgUPWAtjxMOOXl6yT_pad-11" x="36300" y="0"/></g><g id="sMbAFkGr3UzR639URLe1_bottom_copper"><use xlink:href="#XySz7j7MyQhH-XySOTh1_pad-10" x="25820" y="8999.989"/><use xlink:href="#XySz7j7MyQhH-XySOTh1_pad-10" x="25819.989" y="4819.989"/><use xlink:href="#XySz7j7MyQhH-XySOTh1_pad-10" x="17180" y="9000.011"/><use xlink:href="#XySz7j7MyQhH-XySOTh1_pad-11" x="24389.99" y="5319.992"/><use xlink:href="#XySz7j7MyQhH-XySOTh1_pad-11" x="18609.99" y="5320.008"/><use xlink:href="#XySz7j7MyQhH-XySOTh1_pad-10" x="17179.989" y="4820.011"/><use xlink:href="#XySz7j7MyQhH-XySOTh1_pad-12" x="-36600" y="0"/><use xlink:href="#XySz7j7MyQhH-XySOTh1_pad-12" x="36300" y="0"/><use xlink:href="#XySz7j7MyQhH-XySOTh1_pad-13" x="2843.1" y="-3299.5"/><use xlink:href="#XySz7j7MyQhH-XySOTh1_pad-13" x="14583.8" y="-2284.6"/><use xlink:href="#XySz7j7MyQhH-XySOTh1_pad-13" x="-7433.3" y="9899.7"/><use xlink:href="#XySz7j7MyQhH-XySOTh1_pad-13" x="6321.3" y="-4522.4"/><use xlink:href="#XySz7j7MyQhH-XySOTh1_pad-13" x="15831.9" y="-1464.2"/><use xlink:href="#XySz7j7MyQhH-XySOTh1_pad-13" x="-6763.7" y="4984.3"/><use xlink:href="#XySz7j7MyQhH-XySOTh1_pad-13" x="85.5" y="-5050"/><use xlink:href="#XySz7j7MyQhH-XySOTh1_pad-13" x="17926.8" y="5845.5"/><use xlink:href="#XySz7j7MyQhH-XySOTh1_pad-13" x="22666.4" y="-46.7"/><use xlink:href="#XySz7j7MyQhH-XySOTh1_pad-13" x="28910.9" y="4919.6"/><use xlink:href="#XySz7j7MyQhH-XySOTh1_pad-13" x="12339.7" y="-2850.4"/><use xlink:href="#XySz7j7MyQhH-XySOTh1_pad-13" x="36500" y="4500"/><use xlink:href="#XySz7j7MyQhH-XySOTh1_pad-13" x="24396.8" y="2895.4"/><use xlink:href="#XySz7j7MyQhH-XySOTh1_pad-13" x="18424.4" y="3226.1"/><use xlink:href="#XySz7j7MyQhH-XySOTh1_pad-13" x="23871.4" y="-4910.2"/><use xlink:href="#XySz7j7MyQhH-XySOTh1_pad-13" x="-32813.3" y="-5295.6"/><use xlink:href="#XySz7j7MyQhH-XySOTh1_pad-13" x="-13230.5" y="-1306.3"/><use xlink:href="#XySz7j7MyQhH-XySOTh1_pad-13" x="21768.2" y="2967"/><use xlink:href="#XySz7j7MyQhH-XySOTh1_pad-13" x="1615.2" y="317.9"/><use xlink:href="#XySz7j7MyQhH-XySOTh1_pad-13" x="-3611.7" y="-3702.1"/><use xlink:href="#XySz7j7MyQhH-XySOTh1_pad-13" x="-15292.5" y="8045.4"/><use xlink:href="#XySz7j7MyQhH-XySOTh1_pad-13" x="4404" y="4018.1"/><use xlink:href="#XySz7j7MyQhH-XySOTh1_pad-13" x="25607.7" y="919"/><use xlink:href="#XySz7j7MyQhH-XySOTh1_pad-13" x="-4887.2" y="-6572.8"/><use xlink:href="#XySz7j7MyQhH-XySOTh1_pad-13" x="12521.6" y="-5955.2"/><use xlink:href="#XySz7j7MyQhH-XySOTh1_pad-13" x="8172.8" y="-2774.5"/><use xlink:href="#XySz7j7MyQhH-XySOTh1_pad-13" x="-18544.6" y="-9808.7"/><use xlink:href="#XySz7j7MyQhH-XySOTh1_pad-13" x="5774.9" y="3974.1"/><use xlink:href="#XySz7j7MyQhH-XySOTh1_pad-13" x="-14071.4" y="7977.3"/><use xlink:href="#XySz7j7MyQhH-XySOTh1_pad-13" x="-31563.9" y="-8251.1"/><use xlink:href="#XySz7j7MyQhH-XySOTh1_pad-13" x="-13267.1" y="-28.9"/><use xlink:href="#XySz7j7MyQhH-XySOTh1_pad-13" x="119.6" y="282.4"/><use xlink:href="#XySz7j7MyQhH-XySOTh1_pad-13" x="22986.2" y="2915.3"/><path d="M 17926.8 5845.6 17926.8 6566.8 M 14583.8 -2284.6 14566.4 -2302 M 1092.7 -5050 85.5 -5050 M 1092.6 -5050 2843.2 -3299.4 M 85.5 -5050 85.5 -5050 M -4434.2 -5199.9 -64.4 -5199.9 M 17926.7 6566.9 17121.9 7371.7 M -6763.8 -2870.3 -4434.2 -5199.9 M 6921.2 5317.3 4866.8 7371.7 M -7433.2 9899.7 2338.8 9899.7 M 14018 -2850.4 14566.4 -2302 M 15831.9 -1464.2 15404.3 -1464.2 M 6921.2 -3922.5 6321.4 -4522.3 M 15404.2 -1464.2 14566.4 -2302 M 12339.8 -2850.4 14018 -2850.4 M 21176.6 -1536.6 15834.8 -1536.6 M 2338.8 9899.7 2338.8 9899.7 4866.8 7371.7 M -6763.7 4984.2 -6763.7 -2870.4 M 22666.4 -46.7 21176.6 -1536.5 M 6921.2 5317.3 6921.4 5317.5 M 17121.9 7371.7 4866.9 7371.7 M -64.5 -5200 85.5 -5050 M 24664.1 483.4 24979.7 167.8 M 23498 4515.2 23551.4 4515.2 M 24040.5 -4513.6 23670.3 -4513.6 M 20959.4 5109 19484 5109 M 23871.4 -4299.4 23871.4 -3579.7 M 21536.9 5223.6 21536.9 5018.6 M 24591.2 -4381.2 23919.8 -5339.5 M 21336.3 5384.2 23083.7 5384.2 M 24658.1 3711.6 24143.1 4226.6 M 18560.4 3844.3 18219.2 3844.3 M 23829.2 -4952.4 23871.4 -4910.2 M 18424.4 3226.1 18424.6 3226.3 M 23871.4 -4910.2 23871.4 -4299.4 M 24396.8 2895.4 24396.8 3234.6 M 19069.9 3670.3 18648.3 3670.3 M 21536.9 5018.6 23048.1 5018.6 M 24954.3 -3579.7 24760.3 -3579.7 M 16956 2622.3 17559.8 3226.1 M 19915.5 4717.1 21123.6 4717.1 M 24092.8 3973.8 24010.8 4055.8 M 23114.2 -5511.1 23326.3 -5511.1 M 24881.2 1251.1 25237.2 1607.1 M 24414.1 -3807.6 24218.7 -3807.6 M 24954.3 -4304.9 24954.3 -3579.7 M 21336.3 4867 21336.3 5384.2 M 20959.5 4924.2 19640.3 4924.2 M 23503.5 -5511.1 23503.5 -5339.5 M 19640.3 4924.2 18560.3 3844.2 M 19443.3 5068.4 19443.3 5068.4 M 17419.8 2851.1 17073.4 2504.7 M 23503.5 -5339.5 23503.5 -5160.4 M 25004 3667.1 25004 1676.9 M 25199.1 -4336.8 25199.1 -3579.7 M 24278.5 4717.4 23977.5 4717.4 M 23048.1 5018.6 23953 4412.4 M 17073.4 2504.7 17073.4 2504.7 M 24770.1 3601.3 24770.1 1775.9 M 19915.5 4717.1 19265.4 4067 M 25237.2 1607.1 25237.2 3758.7 M 24092.8 3853.9 24092.8 3853.9 M 24024.8 -5511.1 23503.5 -5511.1 M 24455 4216.1 25004 3667.1 M 24979.7 167.9 24979.7 -3378.7 M 24469.7 -3182.5 24658.1 -3182.5 M 23812 -5160.5 24404.4 -4568.1 M 24591.3 -4381.1 24591.3 -3579.7 M 23072.2 4717.2 23871.4 3918 M 24881.1 597.7 24881.1 1251.1 M 18083.2 3670.3 17428.4 3015.5 M 18845.4 2851.1 18639.8 3028.2 M 19265.4 2504.7 19265.4 4066.9 M 24196.5 3957.6 24658.1 3496 M 25199.1 279.8 25199.1 -3579.7 M 24979.7 -3378.7 24292.5 -3378.7 M 17428.4 2851.1 18639.8 3028.2 M 23503.5 -5339.5 23919.9 -5339.5 M 23422.5 4684.3 23422.5 4938.3 M 19700.1 5325.2 19777.5 5325.2 M 24292.6 -3378.7 24292.6 3601.3 M 23800.6 -4873.5 23800.6 -4873.5 M 23829.2 -4952.4 23800.6 -4873.5 M 23114.2 -4299.4 23326.3 -4299.4 M 20959.4 4924.2 20959.4 5109 M 24024.7 -5511.1 25199.1 -4336.7 M 23146.1 4867.1 21336.3 4867.1 M 24591.3 -3579.7 24760.3 -3579.7 M 23810.2 4515.2 23498 4515.2 M 23783.6 4684.3 23422.6 4684.3 M 18424.5 3226.1 18424.5 3226.1 M 23919.8 -5339.5 24760.3 -4499.1 M 17073.5 2504.7 16956 2622.2 M 17274.1 3135.1 17274.1 2702.5 M 25237.1 3758.8 24278.5 4717.4 M 18219.1 3844.2 19443.3 5068.4 M 23072.3 4717.1 21123.6 4717.1 M 23670.4 -4513.6 23670.4 -4743.2 M 23498 4515.2 23146.2 4867 M 24218.8 -4455.3 23800.6 -4873.5 M 21123.6 5571.1 21123.6 4717.1 M 24396.8 3234.7 24658 3495.9 M 23137.3 5223.7 21536.9 5223.7 M 23503.5 -5160.4 23503.5 -4952.3 M 24414 -4367.6 23800.6 -4873.5 M 23871.4 3918 23871.4 3918 M 23871.4 -3579.7 24092.8 -3579.7 M 19777.5 4799.4 19777.5 5325.2 M 23670.4 -4743.3 23800.6 -4873.5 M 25199.1 -3579.7 24954.3 -3579.7 M 17559.9 3226.1 18424.5 3226.1 M 23503.5 -4952.3 23829.3 -4952.3 M 24770.1 1775.9 24472.7 1478.5 M 24455 4216.1 24156 4515.1 M 24658.1 1677.8 24487.1 1848.8 M 23326.3 -4299.4 23326.3 -5511 M 18083.1 3670.3 18648.3 3670.3 M 24292.6 3601.3 24658.1 3496 M 17274.1 2702.5 19069.9 2702.5 M 19265.4 4067 18424.5 3226.1 M 24218.7 -3807.6 24218.7 -4455.4 M 24799.7 -3182.5 24658.1 -3182.5 M 23628 5067 23123.8 5571.2 M 18648.3 3670.3 19777.5 4799.5 M 23503.5 -5160.4 23811.9 -5160.4 M 24092.8 -3579.7 24092.8 3973.9 M 23326.3 -4299.4 23503.5 -4299.4 M 24010.9 4055.8 23953 4412.4 M 24455 4216.1 24196.5 3957.6 M 17428.4 3015.6 17428.4 2851.2 M 24396.8 2895.4 24396.8 3968.6 M 24472.7 346.9 24799.7 19.9 M 19700.1 5325.2 19443.3 5068.4 M 24658.1 -3182.5 24658.1 1677.9 M 24404.3 -4568.1 24591.3 -4381.1 M 16858.5 2719.7 16956 2622.2 M 23977.5 4717.4 23627.9 5067 M 24658.1 3496 24658.1 1644.4 M 19777.5 5325.2 19777.5 5325.2 M 19265.4 2504.7 17073.4 2504.7 M 24040.5 -3807.6 24218.7 -3807.6 M 24040.5 -3807.6 24040.5 -4513.6 M 20959.5 5325.2 19777.5 5325.2 M 24011 4354.4 23953 4412.4 M 24092.8 3853.9 24196.5 3957.6 M 23919.8 -5339.5 23919.8 -5339.5 M 24770 3601.3 24658.1 3496 M 24155.9 4515.2 23810.3 4515.2 M 24487.1 1848.8 24487.1 2851.4 M 25199.1 279.7 24881.1 597.7 M 18845.3 2851.1 17419.8 2851.1 M 24011 4055.8 24011 4354.4 M 24954.3 -4304.9 24954.5 -4304.7 M 23422.5 4938.4 23137.3 5223.6 M 24396.8 3968.6 23953 4412.4 M 18121.1 3486.8 17662.5 3028.2 M 25004 1676.9 24664.2 1337.1 M 23326.3 -5511.1 23503.5 -5511.1 M 23114.2 -4299.3 23114.2 -5511.1 M 19069.9 2702.5 19069.9 3670.3 M 17662.4 3028.2 18639.8 3028.2 M 24469.8 -3182.4 24469.8 130.4 M 24664.2 1337.2 24664.2 483.4 M 24414.1 -4367.5 24414.1 -3807.5 M 19710.2 5571.2 19065.4 4926.4 M 24954.4 -4304.9 24591.2 -4381.2 M 23551.5 4515.2 24010.9 4055.8 M 23123.8 5571.2 21123.6 5571.2 M 19710.2 5571.2 21123.6 5571.2 M 23503.5 -4299.5 23503.5 -4952.3 M 23871.4 -4299.4 23503.5 -4299.4 M 24658.1 3711.7 24658.1 3496 M 20959.4 5325.2 20959.4 5109 M 24799.7 19.9 24799.7 -3182.5 M 24760.3 -3579.7 24760.3 -4499.1 M 24954.3 -4305.1 24760.3 -4499.1 M 23871.4 -3579.8 23871.4 3918 M 19065.4 4926.4 17274.1 3135.1 M 24472.8 3474.1 24092.9 3853.9 M 24472.7 1478.5 24658.1 1644.4 M 16858.6 2719.6 17274.1 3135.1 M 18845.3 3486.8 18121.1 3486.8 M 23083.8 5384.1 23783.6 4684.3 M 24591.3 -3579.7 24092.8 -3579.7 M 19483.9 5109 19443.3 5068.4 M 24487.1 2851.4 24487.1 1625.4 M 24472.7 1478.5 24472.7 346.9 M 18845.3 2851.1 18845.3 3486.9 M -32813.3 -5295.6 -32813.3 -8622.8 M -21025.7 -9101.5 -13230.5 -1306.3 M -32813.4 -8622.8 -32334.6 -9101.6 -21025.8 -9101.6 M 1615.2 317.9 1615.2 317.9 M 18429.1 -372.2 21768.3 2967 M 18429.1 -372.2 2305.3 -372.2 M 1615.3 317.9 1615.2 317.9 M 2305.2 -372.2 1615.2 317.8 M -14267 7019.8 -3611.7 7019.8 -3611.5 7020 M -3611.7 5445.9 -3611.7 -3702.1 M -2037.7 7019.8 1402.3 7019.8 M -15292.6 8045.4 -14267 7019.8 M -3611.7 5446 -3611.7 7019.8 M -2037.8 7019.8 -3611.7 7019.8 M 1402.2 7019.9 4404 4018.1 M -3611.7 7019.8 -3611.7 7019.8 M -4887.2 -9808.7 -18544.6 -9808.7 M 12521.6 -8014.1 13009.4 -8501.9 M 20676.6 -9808.7 13009.4 -9808.7 M 25192.1 -5293.1 25607.7 -4877.5 M 25607.7 -4877.6 25607.7 919 M 20676.5 -9808.7 25192.1 -5293.1 M 8172.8 -4685.9 8714.4 -5227.5 M 12521.6 -8014 12521.6 -5955.2 M -4887.2 -6572.9 -4887.2 -9808.7 M 8172.8 -2774.5 8172.8 -4685.9 M -4887.2 -9808.7 13009.4 -9808.7 M 9442 -5955.2 12521.6 -5955.2 12521.6 -5955.2 M 8714.4 -5227.6 9442 -5955.2 M 13009.4 -8501.9 13009.4 -9808.7 M 5774.9 4127.5 5774.9 3974.1 M 1925.1 7977.3 5774.9 4127.5 M -14071.5 7977.3 1925.1 7977.3 M -31563.9 -8251.1 -21489.3 -8251.1 -13267.1 -28.9 M 1278.4 -876.4 119.6 282.4 M 19194.4 -876.5 22986.2 2915.3 M 19194.3 -876.5 1278.5 -876.5" fill="none" stroke-width="254"/><path d="M 38100 10100 26528 10100 26617 10011 26748 9784 26757 9751 26816 9533 26816 8466 26749 8219 26749 8218 26748 8216 26617 7989 26431 7803 26204 7672 26202 7671 26201 7671 25953 7604 25687 7604 25439 7671 25438 7671 25436 7672 25209 7803 25023 7989 24892 8216 24891 8218 24891 8219 24824 8466 24824 9533 24883 9751 24892 9784 25023 10011 25112 10100 17888 10100 17977 10011 18108 9784 18117 9751 18176 9533 18176 8466 18109 8219 18109 8218 18108 8216 17977 7989 17791 7803 17564 7672 17562 7671 17561 7671 17313 7604 17047 7604 16799 7671 16798 7671 16796 7672 16569 7803 16383 7989 16252 8216 16251 8218 16251 8219 16184 8466 16184 9533 16243 9751 16252 9784 16383 10011 16472 10100 -38100 10100 -38100 9880 -7582 9880 -7582 9919 -7572 9957 -7552 9991 -7525 10019 -7491 10038 -7488 10039 -7486 10040 -7455 10048 -7412 10048 -7381 10040 -7379 10039 -7376 10038 -7342 10019 -7314 9991 -7295 9957 -7294 9954 -7293 9952 -7285 9921 -7285 9878 -7293 9847 -7294 9845 -7295 9842 -7314 9808 -7342 9781 -7376 9761 -7414 9751 -7453 9751 -7491 9761 -7525 9781 -7552 9808 -7572 9842 -7582 9880 -38100 9880 -38100 7938 -16090 7938 -16090 8153 -16037 8351 -15931 8535 -15930 8536 -15781 8683 -15602 8789 -15398 8843 -15187 8843 -14983 8789 -14804 8683 -14802 8681 -14646 8530 -14560 8616 -14381 8720 -14181 8775 -13962 8775 -13762 8720 -13561 8604 1945 8604 1990 8606 2049 8590 2115 8580 2147 8565 2165 8560 2184 8555 2233 8523 2288 8496 2319 8466 2333 8457 6069 4720 6084 4716 6087 4714 6088 4714 6264 4613 6414 4463 6518 4282 6572 4077 6572 3871 6544 3764 6519 3668 6484 3606 6414 3485 6264 3335 6083 3231 6081 3230 5879 3177 5671 3177 5469 3230 5467 3231 5286 3335 5136 3485 5086 3572 4893 3379 4712 3275 4710 3274 4508 3221 4300 3221 4098 3274 4096 3275 3915 3379 3765 3529 3692 3657 3660 3712 3635 3807 3602 3932 1142 6393 -2985 6393 -2985 -3192 -2911.129 -3320 2694 -3320 2694 -3280 2705 -3241 2721 -3213 2724 -3208 2752 -3180 2786 -3161 2789 -3160 2791 -3159 2822 -3151 2863 -3151 2901 -3161 2934 -3180 2962 -3208 2982 -3242 2992 -3280 2992 -3319 2982 -3357 2962 -3391 2934 -3419 2901 -3438 2863 -3448 2822 -3448 2791 -3440 2789 -3439 2786 -3438 2752 -3419 2724 -3391 2705 -3358 2694 -3320 -2911.129 -3320 -2869 -3393 -2814 -3594 -2814 -3811 -2869 -4011 -2973 -4191 -3123 -4341 -3303 -4445 -3504 -4500 -3720 -4500 -3921 -4445 -3922 -4444 -3923 -4444 -4100 -4341 -4249 -4193 -4356 -4008 -4409 -3806 -4409 -3598 -4356 -3396 -4353 -3391 -4239 -3194 -4239 6393 -14287 6393 -14332 6391 -14391 6407 -14457 6417 -14489 6432 -14507 6437 -14526 6442 -14575 6474 -14630 6501 -14631 6502 -14661 6531 -14675 6540 -15376 7242 -15598 7301 -15781 7406 -15932 7557 -16037 7740 -16090 7938 -38100 7938 -38100 4963 -6912 4963 -6912 5006 -6905 5034 -6903 5037 -6902 5042 -6883 5076 -6855 5103 -6821 5123 -6783 5133 -6744 5133 -6706 5123 -6672 5103 -6645 5076 -6625 5042 -6615 5004 -6615 4965 -6625 4927 -6645 4893 -6672 4865 -6706 4846 -6709 4845 -6711 4844 -6742 4836 -6785 4836 -6816 4844 -6818 4845 -6821 4846 -6855 4865 -6883 4893 -6902 4927 -6903 4929 -6903 4930 -6912 4963 -38100 4963 -38100 -601 -37284 -601 -37284 601 -37238 769 -37237 774 -37147 930 -37020 1057 -37011 1062 -36862 1148 -36691 1194 -36509 1194 -36338 1148 -36189 1062 -36180 1057 -36053 930 -35963 774 -35961 769 -35916 601 -35916 -277 -29896 -277 -29896 277 -29755 802 -29754 805 -29479 1281 -29091 1669 -28615 1944 -28613 1945 -28612 1945 -28087 2086 -27533 2086 -27008 1945 -27007 1945 -27005 1944 -26529 1669 -26141 1281 -25866 805 -25865 802 -25724 277 -25724 -277 -25865 -803 -25872 -815 -26141 -1281 -26529 -1669 -27005 -1944 -27007 -1945 -27008 -1945 -27533 -2086 -28087 -2086 -28612 -1945 -28613 -1945 -28615 -1944 -29091 -1669 -29479 -1281 -29748 -815 -29755 -803 -29896 -277 -35916 -277 -35916 -601 -35962 -772 -36054 -931 -36180 -1057 -36336 -1147 -36337 -1147 -36338 -1148 -36509 -1194 -36691 -1194 -36862 -1148 -36863 -1147 -36864 -1147 -37020 -1057 -37146 -931 -37238 -772 -37284 -601 -38100 -601 -38100 -5406 -33611 -5406 -33611 -5187 -33556 -4986 -33478 -4852 -33452 -4807 -33304 -4659 -33122 -4552 -32917 -4498 -32709 -4498 -32502 -4552 -32501 -4552 -32499 -4553 -32325 -4657 -32175 -4806 -32069 -4990 -32016 -5189 -32016 -5403 -32069 -5601 -32186 -5805 -32186 -7745 -32053 -7612 -31901 -7525 -31870 -7507 -31668 -7454 -31460 -7454 -31258 -7507 -31225 -7516 -31202 -7429 -31070 -7203 -30886 -7017 -30661 -6888 -30320 -6795 -30409 -6771 -30410 -6771 -30520 -6741 -30660 -6703 -30661 -6702 -30662 -6702 -30887 -6572 -31071 -6388 -31202 -6162 -31269 -5909 -31269 -5650 -31202 -5397 -31078 -5185 -31070 -5171 -30886 -4985 -30661 -4856 -30411 -4788 -30145 -4788 -29895 -4856 -29670 -4985 -29486 -5171 -29477 -5185 -29354 -5397 -29287 -5650 -29287 -5909 -29354 -6162 -29485 -6388 -29669 -6572 -29894 -6702 -29895 -6702 -29896 -6703 -30036 -6741 -30146 -6771 -30147 -6771 -30236 -6795 -29895 -6888 -29670 -7017 -29486 -7203 -29354 -7429 -29347 -7454 -29302 -7624 -21750 -7624 -14072 53 -14010 280 -13906 460 -13756 610 -13576 714 -13375 769 -13159 769 -12958 714 -12778 610 -12628 460 -12524 279 -12522 275 -12470 75 -12470 -133 -12523 -335 -12628 -518 -12760 -650 -12744 -666 -12742 -667 -12593 -816 -12487 -998 -12433 -1202 -12433 -1410 -12486 -1612 -12593 -1797 -12743 -1946 -12797 -1977 -12921 -2049 -13147 -2111 -15582.327 -4546 6173 -4546 6173 -4501 6181 -4470 6182 -4468 6183 -4465 6202 -4431 6230 -4403 6264 -4384 6267 -4383 6269 -4382 6300 -4374 6343 -4374 6374 -4382 6376 -4383 6379 -4384 6413 -4403 6440 -4431 6460 -4465 6470 -4503 6470 -4542 6460 -4580 6440 -4614 6413 -4641 6379 -4661 6341 -4671 6302 -4671 6264 -4661 6230 -4641 6202 -4614 6183 -4580 6182 -4577 6181 -4575 6173 -4546 -15582.327 -4546 -16110.398 -5074 -63 -5074 -63 -5028 -54 -4994 -35 -4960 -6 -4931 28 -4911 66 -4901 105 -4901 143 -4911 177 -4931 206 -4960 225 -4994 234 -5028 234 -5074 225 -5106 205 -5141 177 -5169 143 -5189 105 -5199 66 -5199 28 -5189 -6 -5169 -34 -5141 -54 -5106 -63 -5074 -16110.398 -5074 -20590 -9553 -20629 -9597 -20653 -9610 -20691 -9632 -20740 -9667 -20774 -9678 -20792 -9688 -20806 -9695 -20860 -9706 -20920 -9725 -20964 -9726 -20978 -9729 -21069 -9729 -21107 -9730 -21110 -9729 -32372 -9729 -32399 -9730 -32400 -9730 -32451 -9717 -32502 -9709 -32525 -9705 -32544 -9695 -32558 -9688 -32594 -9679 -32640 -9649 -32697 -9621 -32698 -9620 -32729 -9590 -32743 -9581 -32744 -9580 -33262 -9061 -33308 -9020 -33309 -9019 -33342 -8960 -33379 -8907 -33390 -8874 -33405 -8846 -33405 -8844 -33406 -8843 -33417 -8789 -33433 -8737 -33436 -8728 -33437 -8689 -33440 -8672 -33440 -8598 -33441 -8541 -33440 -8539 -33440 -5806 -33556 -5605 -33611 -5406 -38100 -5406 -38100 -6925 -36349 -6925 -36349 -6666 -36282 -6413 -36193 -6261 -36150 -6187 -35966 -6001 -35741 -5872 -35491 -5804 -35225 -5804 -34975 -5872 -34750 -6001 -34566 -6187 -34522 -6261 -34434 -6413 -34367 -6666 -34367 -6925 -34434 -7178 -34565 -7404 -34749 -7588 -34974 -7718 -34975 -7718 -34976 -7719 -35225 -7787 -35491 -7787 -35740 -7719 -35741 -7718 -35742 -7718 -35967 -7588 -36151 -7404 -36282 -7178 -36349 -6925 -38100 -6925 -38100 -10100 -19292 -10100 -19342 -9913 -19342 -9705 -19289 -9503 -19288 -9502 -19181 -9317 -19032 -9169 -18854 -9066 -18654 -9011 -18435 -9011 -18235 -9066 -18035 -9182 -5514 -9182 -5514 -7082 -5630 -6882 -5685 -6681 -5685 -6465 -5630 -6264 -5526 -6084 -5376 -5934 -5196 -5830 -4995 -5775 -4779 -5775 -4578 -5830 -4444 -5908 -4399 -5934 -4250 -6082 -4143 -6267 -4090 -6469 -4090 -6677 -4144 -6881 -4250 -7063 -4260 -7080 -4260 -9182 7865 -9182 7834 -9066 7804 -8955 7804 -8704 7848 -8541 7868 -8465 7993 -8249 8169 -8073 8385 -7948 8387 -7947 8388 -7947 8624 -7884 8876 -7884 9112 -7947 9113 -7947 9115 -7948 9331 -8073 9507 -8249 9632 -8465 9652 -8541 9696 -8704 9696 -8955 9666 -9066 9635 -9182 10865 -9182 10834 -9066 10804 -8955 10804 -8704 10848 -8541 10868 -8465 10993 -8249 11169 -8073 11385 -7948 11387 -7947 11388 -7947 11624 -7884 11895 -7884 11895 -6582 9422 -6582 9377 -6584 9318 -6568 9252 -6558 9220 -6543 9202 -6538 9183 -6533 9134 -6501 9079 -6474 9078 -6473 9048 -6444 9034 -6435 8309 -5709 8306 -5707 7730 -5130 7697 -5100 7678 -5083 7648 -5028 7608 -4972 7604 -4959 7597 -4938 7583 -4911 7580 -4906 7571 -4856 7570 -4852 7550 -4792 7549 -4755 7546 -4736 7546 -4661 7545 -4606 7546 -4602 7546 -3285 7430 -3084 7375 -2884 7375 -2665 7430 -2465 7501 -2343 7533 -2287 7682 -2137 7867 -2030 8069 -1977 8277 -1977 8481 -2031 8663 -2137 8812 -2286 8822.421 -2304 14435 -2304 14435 -2265 14445 -2227 14465 -2193 14492 -2166 14526 -2146 14564 -2136 14603 -2136 14641 -2146 14675 -2166 14703 -2193 14704 -2194 14722 -2226 14733 -2265 14733 -2305 14722 -2343 14703 -2376 14675 -2404 14641 -2423 14638 -2424 14636 -2425 14605 -2433 14562 -2433 14531 -2425 14529 -2424 14526 -2423 14492 -2404 14465 -2376 14445 -2342 14435 -2304 8822.421 -2304 8845 -2343 8917 -2469 8970 -2667 8970 -2870 12191 -2870 12191 -2831 12201 -2793 12221 -2759 12248 -2731 12282 -2712 12285 -2711 12287 -2710 12318 -2702 12361 -2702 12392 -2710 12394 -2711 12397 -2712 12431 -2731 12459 -2759 12478 -2793 12479 -2796 12480 -2798 12488 -2829 12488 -2873 12480 -2903 12479 -2905 12478 -2908 12459 -2942 12431 -2969 12397 -2989 12359 -2999 12320 -2999 12282 -2989 12248 -2969 12221 -2942 12201 -2908 12191 -2870 8970 -2870 8970 -2882 8917 -3080 8800 -3284 8800 -4425 9120 -4746 9123 -4748 9702 -5328 12014 -5328 12030 -5319 12031 -5318 12215 -5212 12217 -5211 12218 -5211 12414 -5158 12629 -5158 12827 -5211 13010 -5316 13158 -5464 13171 -5485 13265 -5647 13319 -5851 13319 -6059 13266 -6261 13159 -6446 13149 -6463 13149 -7753 13183 -7787 13468 -8073 13504 -8105 13517 -8128 13534 -8158 13575 -8216 13588 -8257 13602 -8282 13611 -8328 13633 -8396 13634 -8446 13636 -8454 13636 -8518 13638 -8583 13636 -8590 13636 -9182 20415 -9182 23460 -6138 23376 -6138 23344 -6144 23298 -6138 23165 -6138 23148 -6141 23132 -6144 23131 -6144 23117 -6142 23086 -6138 23075 -6138 23025 -6130 22940 -6120 22930 -6115 22923 -6114 22885 -6095 22846 -6076 22811 -6060 22768 -6041 22763 -6036 22750 -6030 22696 -5977 22695 -5976 22619 -5908 22613 -5897 22610 -5894 22561 -5804 22521 -5731 22521 -5730 22517 -5722 22481 -5529 22487 -5485 22487 -4351 22485 -4340 22481 -4317 22487 -4273 22487 -4261 22495 -4212 22505 -4125 22510 -4115 22511 -4109 22549 -4031 22565 -3996 22584 -3953 22590 -3947 22595 -3936 22647 -3882 22717 -3804 22728 -3798 22731 -3795 22734 -3794 22734 -3793 22818 -3748 22894 -3706 22895 -3706 22903 -3702 23096 -3666 23098 -3666 23119 -3669 23142 -3672 23226 -3672 23239 -3590 23244 -3553 23244 2158 23072 2113 20890.366 -68 22518 -68 22518 -25 22526 6 22527 8 22528 11 22547 45 22575 72 22609 92 22647 102 22686 102 22724 92 22758 72 22785 45 22805 11 22815 -27 22815 -66 22805 -104 22785 -138 22758 -166 22724 -185 22721 -186 22719 -187 22688 -195 22645 -195 22614 -187 22612 -186 22609 -185 22575 -166 22547 -138 22528 -104 22527 -101 22526 -99 22518 -68 20890.366 -68 19630 -1328 19590 -1373 19531 -1406 19480 -1442 19446 -1453 19423 -1465 19414 -1470 19360 -1481 19300 -1500 19256 -1501 19242 -1504 19152 -1504 19113 -1505 19110 -1504 15980 -1504 15951 -1556 15924 -1582 15923 -1583 15889 -1603 15851 -1613 15812 -1613 15774 -1603 15773 -1602 15772 -1602 15741 -1584 15714 -1557 15681 -1504 5585 -1503 1258 -1503 1213 -1505 1141 -1487 1127 -1485 1088 -1480 1056 -1465 1031 -1457 1019 -1454 970 -1422 915 -1395 914 -1394 883 -1364 869 -1355 285 -770 36 -521 -186 -462 -370 -356 -371 -355 -518 -206 -624 -27 -678 177 -678 388 -624 592 -517 773 -371 919 -190 1026 14 1080 225 1080 429 1026 608 920 757 773 857 598 870 621 871 624 978 809 1127 957 1307 1061 1511 1115 1719 1115 1921 1062 1932 1056 2104 957 2254 807 2358 627 2420 400 2565 255 18169 255 20965 3050 20971 3071 21024 3273 21131 3458 21280 3606 21460 3710 21664 3764 21872 3764 22074 3711 22257 3606 22403 3460 22496 3552 22498 3554 22675 3657 22677 3658 22878 3713 23188 3713 22812 4090 21175 4090 21158 4087 21142 4084 21141 4084 21127 4086 21096 4090 20176 4090 19892 3807 19892 2555 19898 2523 19892 2475 19892 2466 19883 2407 19873 2331 19869 2322 19868 2315 19858 2294 19845 2266 19844 2266 19824 2224 19794 2158 19788 2151 19784 2142 19726 2082 19662 2010 19651 2004 19648 2001 19645 2000 19645 1999 19552 1949 19519 1931 19485 1912 19484 1912 19478 1909 19477 1909 19476 1908 19283 1872 19281 1872 19260 1875 19237 1878 17139 1878 17132 1876 17131 1876 17118 1877 17091 1878 17053 1878 17029 1877 17008 1876 17005 1876 17000 1877 16993 1877 16967 1885 16940 1886 16937 1887 16938 1887 16908 1898 16884 1901 16851 1917 16813 1927 16810 1929 16804 1931 16803 1932 16802 1932 16777 1949 16757 1957 16738 1973 16710 1986 16679 2016 16666 2024 16665 2026 16664 2026 16661 2029 16637 2045 16621 2066 16610 2075 16598 2092 16549 2142 16521 2161 16493 2197 16447 2243 16423 2259 16409 2278 16397 2294 16386 2305 16367 2332 16355 2348 16304 2413 16304 2414 16301 2424 16293 2434 16264 2525 16239 2594 16239 2603 16235 2614 16230 2801 16278 2967 16281 2977 16285 2992 16397 3155 16437 3186 16763 3511 16569 3623 16383 3809 16252 4036 16251 4038 16251 4039 16184 4287 16184 5353 16251 5601 16252 5604 16383 5831 16569 6017 16796 6148 16798 6149 16799 6149 17047 6216 17313 6216 17563 6149 17760 6035 17760 6170 19519 6170 19544 6175 19604 6194 19648 6195 19662 6198 19753 6198 19791 6199 19794 6198 21072 6198 21095 6202 21106 6204 21107 6204 21121 6202 21152 6198 23144 6198 23189 6200 23248 6184 23314 6174 23346 6159 23364 6154 23383 6149 23432 6117 23487 6090 23514 6064 23540 6047 23540 6170 25240 6170 25240 6035 25437 6149 25687 6216 25953 6216 26201 6149 26202 6149 26204 6148 26431 6017 26617 5831 26748 5604 26749 5601 26816 5353 26816 4900 28762 4900 28762 4939 28772 4977 28792 5011 28820 5039 28853 5058 28891 5068 28932 5068 28963 5060 28965 5059 28968 5058 29002 5039 29030 5011 29034 5004 29049 4978 29060 4940 29060 4898 29049 4861 29031 4829 29003 4802 29002 4801 28968 4781 28930 4771 28891 4771 28853 4781 28852 4782 28851 4782 28820 4800 28791 4829 28773 4859 28772 4861 28772 4862 28762 4900 26816 4900 26816 4480 36351 4480 36351 4520 36361 4557 36381 4591 36409 4619 36443 4639 36480 4649 36520 4649 36557 4639 36591 4619 36619 4591 36639 4557 36649 4520 36649 4480 36639 4443 36619 4409 36591 4381 36557 4361 36520 4351 36480 4351 36443 4361 36409 4381 36381 4409 36361 4443 36351 4480 26816 4480 26816 4287 26749 4039 26749 4038 26748 4036 26617 3809 26431 3623 26204 3492 26202 3491 26201 3491 25953 3424 25864 3424 25864 1680 25912 1664 25915 1662 25916 1662 26096 1558 26245 1410 26255 1400 26524 1669 27000 1944 27002 1945 27003 1945 27528 2086 28082 2086 28607 1945 28608 1945 28610 1944 29086 1669 29474 1281 29749 805 29750 802 29891 277 29891 -277 29750 -803 29743 -815 29498.822 -1238 34774 -1238 34774 1238 34860 1557 34878 1624 35079 1972 35363 2256 35711 2457 35713 2458 35714 2458 36097 2561 36503 2561 36886 2458 36887 2458 36889 2457 37237 2256 37521 1972 37722 1624 37740 1557 37826 1238 37826 -1238 37723 -1622 37722 -1624 37521 -1972 37237 -2256 36889 -2457 36887 -2458 36886 -2458 36503 -2561 36097 -2561 35714 -2458 35713 -2458 35711 -2457 35363 -2256 35079 -1972 34878 -1624 34877 -1622 34774 -1238 29498.822 -1238 29474 -1281 29086 -1669 28610 -1944 28608 -1945 28607 -1945 28082 -2086 27528 -2086 27003 -1945 27002 -1945 27000 -1944 26524 -1669 26235 -1380 26235 -4910 26237 -4942 26226 -4985 26221 -5007 26211 -5067 26196 -5098 26186 -5136 26152 -5189 26127 -5240 26096 -5272 26087 -5286 25673 -5699 25671 -5702 21272 -10100 38100 -10100 38100 10100"/><use xlink:href="#XySz7j7MyQhH-XySOTh1_pad-16" x="2843.1" y="-3299.5"/><use xlink:href="#XySz7j7MyQhH-XySOTh1_pad-16" x="14583.8" y="-2284.6"/><use xlink:href="#XySz7j7MyQhH-XySOTh1_pad-16" x="-7433.3" y="9899.7"/><use xlink:href="#XySz7j7MyQhH-XySOTh1_pad-16" x="6321.3" y="-4522.4"/><use xlink:href="#XySz7j7MyQhH-XySOTh1_pad-16" x="15831.9" y="-1464.2"/><use xlink:href="#XySz7j7MyQhH-XySOTh1_pad-16" x="-6763.7" y="4984.3"/><use xlink:href="#XySz7j7MyQhH-XySOTh1_pad-16" x="85.5" y="-5050"/><use xlink:href="#XySz7j7MyQhH-XySOTh1_pad-16" x="17926.8" y="5845.5"/><use xlink:href="#XySz7j7MyQhH-XySOTh1_pad-16" x="22666.4" y="-46.7"/><use xlink:href="#XySz7j7MyQhH-XySOTh1_pad-16" x="28910.9" y="4919.6"/><use xlink:href="#XySz7j7MyQhH-XySOTh1_pad-16" x="12339.7" y="-2850.4"/><use xlink:href="#XySz7j7MyQhH-XySOTh1_pad-16" x="36500" y="4500"/><use xlink:href="#XySz7j7MyQhH-XySOTh1_pad-16" x="24396.8" y="2895.4"/><use xlink:href="#XySz7j7MyQhH-XySOTh1_pad-16" x="18424.4" y="3226.1"/><use xlink:href="#XySz7j7MyQhH-XySOTh1_pad-16" x="23871.4" y="-4910.2"/><use xlink:href="#XySz7j7MyQhH-XySOTh1_pad-16" x="-32813.3" y="-5295.6"/><use xlink:href="#XySz7j7MyQhH-XySOTh1_pad-16" x="-13230.5" y="-1306.3"/><use xlink:href="#XySz7j7MyQhH-XySOTh1_pad-16" x="21768.2" y="2967"/><use xlink:href="#XySz7j7MyQhH-XySOTh1_pad-16" x="1615.2" y="317.9"/><use xlink:href="#XySz7j7MyQhH-XySOTh1_pad-16" x="-3611.7" y="-3702.1"/><use xlink:href="#XySz7j7MyQhH-XySOTh1_pad-16" x="-15292.5" y="8045.4"/><use xlink:href="#XySz7j7MyQhH-XySOTh1_pad-16" x="4404" y="4018.1"/><use xlink:href="#XySz7j7MyQhH-XySOTh1_pad-16" x="25607.7" y="919"/><use xlink:href="#XySz7j7MyQhH-XySOTh1_pad-16" x="-4887.2" y="-6572.8"/><use xlink:href="#XySz7j7MyQhH-XySOTh1_pad-16" x="12521.6" y="-5955.2"/><use xlink:href="#XySz7j7MyQhH-XySOTh1_pad-16" x="8172.8" y="-2774.5"/><use xlink:href="#XySz7j7MyQhH-XySOTh1_pad-16" x="-18544.6" y="-9808.7"/><use xlink:href="#XySz7j7MyQhH-XySOTh1_pad-16" x="5774.9" y="3974.1"/><use xlink:href="#XySz7j7MyQhH-XySOTh1_pad-16" x="-14071.4" y="7977.3"/><use xlink:href="#XySz7j7MyQhH-XySOTh1_pad-16" x="-31563.9" y="-8251.1"/><use xlink:href="#XySz7j7MyQhH-XySOTh1_pad-16" x="-13267.1" y="-28.9"/><use xlink:href="#XySz7j7MyQhH-XySOTh1_pad-16" x="119.6" y="282.4"/><use xlink:href="#XySz7j7MyQhH-XySOTh1_pad-16" x="22986.2" y="2915.3"/><use xlink:href="#XySz7j7MyQhH-XySOTh1_pad-17" x="25820" y="8999.989"/><use xlink:href="#XySz7j7MyQhH-XySOTh1_pad-17" x="25819.989" y="4819.989"/><use xlink:href="#XySz7j7MyQhH-XySOTh1_pad-17" x="17180" y="9000.011"/><use xlink:href="#XySz7j7MyQhH-XySOTh1_pad-18" x="24389.99" y="5319.992"/><use xlink:href="#XySz7j7MyQhH-XySOTh1_pad-18" x="18609.99" y="5320.008"/><use xlink:href="#XySz7j7MyQhH-XySOTh1_pad-17" x="17179.989" y="4820.011"/><use xlink:href="#XySz7j7MyQhH-XySOTh1_pad-18" x="-35358.1" y="-6795.3"/><use xlink:href="#XySz7j7MyQhH-XySOTh1_pad-18" x="-30278.1" y="-5779.3"/><use xlink:href="#XySz7j7MyQhH-XySOTh1_pad-18" x="-30278.1" y="-7811.3"/><use xlink:href="#XySz7j7MyQhH-XySOTh1_pad-18" x="8750" y="-8830"/><use xlink:href="#XySz7j7MyQhH-XySOTh1_pad-18" x="11750" y="-8830"/><use xlink:href="#XySz7j7MyQhH-XySOTh1_pad-19" x="-36600" y="0"/><use xlink:href="#XySz7j7MyQhH-XySOTh1_pad-19" x="36300" y="0"/><use xlink:href="#XySz7j7MyQhH-XySOTh1_pad-18" x="27805" y="0"/><use xlink:href="#XySz7j7MyQhH-XySOTh1_pad-18" x="-27810" y="0"/></g><g id="sMbAFkGr3UzR639URLe1_bottom_silkscreen"><path d="M 38480 10490 -38480 10490 -38480 -10490 38480 -10490 38480 10490 M 33210 1000 33210 -1000 M 34210 0 32210 0 M -32850 -10 -34850 -10" fill="none" stroke-width="127"/><path d="M 35778.809 11487.142 35664.523 11449.047 35626.428 11410.952 35588.333 11334.761 35588.333 11220.476 35626.428 11144.285 35664.523 11106.19 35740.714 11068.095 36045.476 11068.095 36045.476 11868.095 35778.809 11868.095 35702.619 11830 35664.523 11791.904 35626.428 11715.714 35626.428 11639.523 35664.523 11563.333 35702.619 11525.238 35778.809 11487.142 36045.476 11487.142 M 34826.428 11068.095 35283.571 11068.095 M 35055 11068.095 35055 11868.095 35131.19 11753.809 35207.38 11677.619 35283.571 11639.523" fill="none" stroke-width="95"/></g><g id="sMbAFkGr3UzR639URLe1_bottom_drill1"><use xlink:href="#PGQkmgcp5YWr_a6Jrun8_pad-1" x="-32813" y="-5296"/><use xlink:href="#PGQkmgcp5YWr_a6Jrun8_pad-1" x="-31564" y="-8251"/><use xlink:href="#PGQkmgcp5YWr_a6Jrun8_pad-1" x="-18545" y="-9809"/><use xlink:href="#PGQkmgcp5YWr_a6Jrun8_pad-1" x="-15292" y="8045"/><use xlink:href="#PGQkmgcp5YWr_a6Jrun8_pad-1" x="-14071" y="7977"/><use xlink:href="#PGQkmgcp5YWr_a6Jrun8_pad-1" x="-13267" y="-29"/><use xlink:href="#PGQkmgcp5YWr_a6Jrun8_pad-1" x="-13230" y="-1306"/><use xlink:href="#PGQkmgcp5YWr_a6Jrun8_pad-1" x="-7433" y="9900"/><use xlink:href="#PGQkmgcp5YWr_a6Jrun8_pad-1" x="-6764" y="4984"/><use xlink:href="#PGQkmgcp5YWr_a6Jrun8_pad-1" x="-4887" y="-6573"/><use xlink:href="#PGQkmgcp5YWr_a6Jrun8_pad-1" x="-3612" y="-3702"/><use xlink:href="#PGQkmgcp5YWr_a6Jrun8_pad-1" x="85" y="-5050"/><use xlink:href="#PGQkmgcp5YWr_a6Jrun8_pad-1" x="120" y="282"/><use xlink:href="#PGQkmgcp5YWr_a6Jrun8_pad-1" x="1615" y="318"/><use xlink:href="#PGQkmgcp5YWr_a6Jrun8_pad-1" x="2843" y="-3299"/><use xlink:href="#PGQkmgcp5YWr_a6Jrun8_pad-1" x="4404" y="4018"/><use xlink:href="#PGQkmgcp5YWr_a6Jrun8_pad-1" x="5775" y="3974"/><use xlink:href="#PGQkmgcp5YWr_a6Jrun8_pad-1" x="6321" y="-4522"/><use xlink:href="#PGQkmgcp5YWr_a6Jrun8_pad-1" x="8173" y="-2774"/><use xlink:href="#PGQkmgcp5YWr_a6Jrun8_pad-1" x="12340" y="-2850"/><use xlink:href="#PGQkmgcp5YWr_a6Jrun8_pad-1" x="12522" y="-5955"/><use xlink:href="#PGQkmgcp5YWr_a6Jrun8_pad-1" x="14584" y="-2285"/><use xlink:href="#PGQkmgcp5YWr_a6Jrun8_pad-1" x="15832" y="-1464"/><use xlink:href="#PGQkmgcp5YWr_a6Jrun8_pad-1" x="17927" y="5845"/><use xlink:href="#PGQkmgcp5YWr_a6Jrun8_pad-1" x="18424" y="3226"/><use xlink:href="#PGQkmgcp5YWr_a6Jrun8_pad-1" x="21768" y="2967"/><use xlink:href="#PGQkmgcp5YWr_a6Jrun8_pad-1" x="22666" y="-47"/><use xlink:href="#PGQkmgcp5YWr_a6Jrun8_pad-1" x="22986" y="2915"/><use xlink:href="#PGQkmgcp5YWr_a6Jrun8_pad-1" x="23871" y="-4910"/><use xlink:href="#PGQkmgcp5YWr_a6Jrun8_pad-1" x="24397" y="2895"/><use xlink:href="#PGQkmgcp5YWr_a6Jrun8_pad-1" x="25608" y="919"/><use xlink:href="#PGQkmgcp5YWr_a6Jrun8_pad-1" x="28911" y="4920"/><use xlink:href="#PGQkmgcp5YWr_a6Jrun8_pad-1" x="36500" y="4500"/><use xlink:href="#PGQkmgcp5YWr_a6Jrun8_pad-4" x="18610" y="5320"/><use xlink:href="#PGQkmgcp5YWr_a6Jrun8_pad-4" x="24390" y="5320"/><use xlink:href="#PGQkmgcp5YWr_a6Jrun8_pad-5" x="8750" y="-8830"/><use xlink:href="#PGQkmgcp5YWr_a6Jrun8_pad-5" x="11750" y="-8830"/><use xlink:href="#PGQkmgcp5YWr_a6Jrun8_pad-6" x="-35358" y="-6795"/><use xlink:href="#PGQkmgcp5YWr_a6Jrun8_pad-6" x="-30278" y="-5779"/><use xlink:href="#PGQkmgcp5YWr_a6Jrun8_pad-6" x="-30278" y="-7811"/><use xlink:href="#PGQkmgcp5YWr_a6Jrun8_pad-7" x="-27810" y="0"/><use xlink:href="#PGQkmgcp5YWr_a6Jrun8_pad-7" x="27805" y="0"/><path d="M 17180 4420 17180 5220 M 17180 8600 17180 9400 M 25820 4420 25820 5220 M 25820 8600 25820 9400" fill="none" stroke-width="600"/><path d="M -36600 -510 -36600 510 M 36300 -510 36300 510" fill="none" stroke-width="1380"/></g><clipPath id="sMbAFkGr3UzR639URLe1_bottom_outline"><path d="M -38500 -10500 -38500 10500 38500 10500 38500 -10500 -38500 -10500" fill="none" stroke-width="50"/></clipPath><mask id="sMbAFkGr3UzR639URLe1_bottom_mech-mask"><g fill="#000" stroke="#000"><rect x="-38500" y="-10500" width="77000" height="21000" fill="#fff"/><use xlink:href="#sMbAFkGr3UzR639URLe1_bottom_drill1"/></g></mask><mask id="sMbAFkGr3UzR639URLe1_bottom_cf-mask"><g fill="#fff" stroke="#fff"><use xlink:href="#sMbAFkGr3UzR639URLe1_bottom_soldermask"/></g></mask><mask id="sMbAFkGr3UzR639URLe1_bottom_sm-mask"><g fill="#000" stroke="#000"><rect x="-38500" y="-10500" width="77000" height="21000" fill="#fff"/><use xlink:href="#sMbAFkGr3UzR639URLe1_bottom_soldermask"/></g></mask></defs><g transform="translate(0,0) scale(1,-1)"><g mask="url(#sMbAFkGr3UzR639URLe1_bottom_mech-mask)" clip-path="url(#sMbAFkGr3UzR639URLe1_bottom_outline)" transform="translate(0,0) scale(-1,1)"><rect x="-38500" y="-10500" width="77000" height="21000" fill="currentColor" class="sMbAFkGr3UzR639URLe1_fr4"/><use xlink:href="#sMbAFkGr3UzR639URLe1_bottom_copper" fill="currentColor" stroke="currentColor" class="sMbAFkGr3UzR639URLe1_cu"/><use xlink:href="#sMbAFkGr3UzR639URLe1_bottom_copper" fill="currentColor" stroke="currentColor" class="sMbAFkGr3UzR639URLe1_cf" mask="url(#sMbAFkGr3UzR639URLe1_bottom_cf-mask)"/><g mask="url(#sMbAFkGr3UzR639URLe1_bottom_sm-mask)"><rect x="-38500" y="-10500" width="77000" height="21000" fill="currentColor" class="sMbAFkGr3UzR639URLe1_sm"/><use xlink:href="#sMbAFkGr3UzR639URLe1_bottom_silkscreen" fill="currentColor" stroke="currentColor" class="sMbAFkGr3UzR639URLe1_ss"/></g></g></g></svg>